<svg width="1440" height="590" viewBox="0 0 1440 590" fill="none" xmlns="http://www.w3.org/2000/svg">
<path opacity="0.2" fillRule="evenodd" clipRule="evenodd" d="M1678.41 135.294C1596.24 104.537 1382.9 56.9565 1186.74 112.673C1125.4 130.095 1101.67 155.454 1095.37 183.952C1092.23 198.167 1093.44 213.107 1096.4 228.131C1098.54 238.979 1101.6 249.904 1104.61 260.644L1104.62 260.663C1105.77 264.782 1106.92 268.874 1108 272.923C1115.85 302.239 1120.39 329.323 1101.59 349.635C1092.17 359.807 1076.85 368.335 1053.01 374.567C1029.17 380.799 996.846 384.724 953.467 385.721C822.829 388.723 733.27 362.472 657.452 340.248C632.571 332.955 609.169 326.096 586.282 320.847C539.969 310.225 495.779 306.209 445.763 318.598C395.757 330.984 339.97 359.759 270.436 414.642C201.006 469.442 142.984 485.78 91.1394 480.788C39.2697 475.793 -6.50327 449.442 -51.4278 418.667C-62.2886 411.227 -73.1012 403.527 -83.9379 395.81C-117.892 371.631 -152.082 347.284 -188.725 330.238C-237.1 307.736 -289.802 297.926 -352.014 317.921L-351.708 318.873C-289.787 298.972 -237.347 308.723 -189.147 331.145C-152.595 348.148 -118.512 372.419 -84.5747 396.586C-73.7244 404.312 -62.8891 412.028 -51.993 419.492C-7.05014 450.279 38.9031 476.762 91.0435 481.783C143.209 486.807 201.481 470.341 271.055 415.427C340.524 360.596 396.183 331.909 446.004 319.568C495.816 307.23 539.837 311.221 586.058 321.821C608.874 327.054 632.23 333.9 657.082 341.185L657.083 341.186C732.92 363.415 822.681 389.727 953.49 386.721C996.908 385.723 1029.32 381.793 1053.26 375.535C1077.21 369.277 1092.73 360.679 1102.32 350.314C1121.55 329.553 1116.8 301.918 1108.97 272.665C1107.88 268.591 1106.73 264.484 1105.57 260.358L1105.56 260.337C1102.56 249.61 1099.51 238.744 1097.38 227.938C1094.43 212.976 1093.24 198.191 1096.34 184.168C1102.53 156.188 1125.83 131.011 1187.01 113.635C1382.9 57.9972 1596.01 105.517 1678.06 136.23L1678.41 135.294ZM1212.6 148.136C1408.76 92.4194 1622.1 140 1704.27 170.756L1703.92 171.693C1621.87 140.98 1408.76 93.4601 1212.87 149.098C1151.7 166.474 1128.39 191.651 1122.2 219.63C1119.1 233.654 1120.29 248.438 1123.24 263.401C1125.37 274.207 1128.42 285.073 1131.42 295.8L1131.43 295.821C1132.59 299.947 1133.74 304.053 1134.83 308.127C1142.66 337.381 1147.41 365.016 1128.19 385.777C1118.59 396.142 1103.07 404.74 1079.12 410.998C1055.18 417.256 1022.77 421.186 979.351 422.183C848.542 425.19 758.78 398.878 682.943 376.648L682.941 376.648L682.937 376.646C658.087 369.362 634.732 362.517 611.919 357.284C565.697 346.684 521.676 342.693 471.864 355.031C422.043 367.372 366.384 396.059 296.915 450.89C227.341 505.804 169.07 522.269 116.904 517.246C64.7633 512.225 18.8101 485.742 -26.1327 454.955C-37.0289 447.491 -47.8642 439.775 -58.7144 432.048C-92.6515 407.882 -126.735 383.611 -163.287 366.608C-211.487 344.186 -263.927 334.435 -325.848 354.336L-326.154 353.384C-263.941 333.389 -211.239 343.198 -162.865 365.701C-126.222 382.747 -92.032 407.094 -58.0776 431.273C-47.241 438.99 -36.4283 446.69 -25.5676 454.13C19.357 484.905 65.1299 511.256 117 516.251C168.844 521.243 226.866 504.905 296.296 450.105C365.83 395.222 421.617 366.447 471.624 354.061C521.64 341.672 565.83 345.688 612.142 356.31C635.03 361.559 658.431 368.418 683.312 375.711C759.13 397.935 848.69 424.186 979.328 421.184C1022.71 420.187 1055.03 416.261 1078.87 410.03C1102.72 403.798 1118.03 395.27 1127.45 385.098C1146.25 364.786 1141.71 337.702 1133.86 308.386C1132.78 304.341 1131.63 300.254 1130.48 296.14L1130.48 296.126L1130.47 296.107C1127.46 285.367 1124.4 274.442 1122.26 263.594C1119.3 248.57 1118.09 233.63 1121.23 219.415C1127.53 190.917 1151.26 165.558 1212.6 148.136ZM1730.13 206.22C1647.97 175.464 1434.63 127.883 1238.46 183.6C1177.12 201.022 1153.39 226.38 1147.09 254.878C1143.95 269.094 1145.16 284.034 1148.12 299.058C1150.26 309.906 1153.32 320.831 1156.33 331.571L1156.34 331.59L1156.34 331.604L1156.37 331.701C1157.51 335.783 1158.65 339.837 1159.72 343.85C1167.57 373.166 1172.12 400.25 1153.31 420.562C1143.9 430.734 1128.58 439.262 1104.73 445.494C1080.89 451.725 1048.57 455.651 1005.19 456.648C874.552 459.65 784.992 433.398 709.174 411.175C684.293 403.882 660.891 397.023 638.004 391.773C591.691 381.152 547.501 377.136 497.485 389.524C447.479 401.911 391.692 430.686 322.158 485.569C252.728 540.369 194.706 556.707 142.861 551.715C90.9917 546.72 45.2188 520.368 0.294189 489.594C-10.5666 482.154 -21.3792 474.454 -32.2159 466.737C-66.1702 442.558 -100.36 418.211 -137.003 401.165C-185.378 378.662 -238.08 368.853 -300.292 388.848L-299.986 389.8C-238.065 369.899 -185.625 379.65 -137.425 402.072C-100.873 419.075 -66.7897 443.346 -32.8527 467.512C-22.0024 475.239 -11.1671 482.955 -0.270935 490.419C44.6719 521.206 90.6251 547.689 142.766 552.71C194.932 557.733 253.203 541.268 322.777 486.354C392.246 431.522 447.905 402.836 497.726 390.495C547.538 378.157 591.559 382.147 637.78 392.748C660.596 397.981 683.953 404.827 708.805 412.112C784.642 434.342 874.403 460.654 1005.21 457.647C1048.63 456.649 1081.04 452.72 1104.99 446.461C1128.93 440.203 1144.45 431.606 1154.05 421.241C1173.27 400.479 1168.52 372.845 1160.69 343.591C1159.6 339.517 1158.45 335.411 1157.29 331.284L1157.29 331.263C1154.28 320.537 1151.23 309.671 1149.1 298.865C1146.15 283.902 1144.97 269.118 1148.07 255.094C1154.25 227.114 1177.56 201.938 1238.73 184.562C1434.62 128.924 1647.73 176.444 1729.78 207.157L1730.13 206.22ZM1756 241.683C1673.83 210.927 1460.49 163.346 1264.32 219.063C1202.98 236.485 1179.25 261.843 1172.95 290.341C1169.81 304.557 1171.02 319.497 1173.98 334.521C1176.12 345.369 1179.18 356.294 1182.19 367.034L1182.2 367.053L1182.2 367.072L1182.21 367.082C1183.36 371.191 1184.5 375.273 1185.58 379.313C1193.43 408.629 1197.98 435.713 1179.17 456.025C1169.76 466.197 1154.44 474.725 1130.59 480.957C1106.75 487.188 1074.43 491.113 1031.05 492.11C900.413 495.113 810.853 468.861 735.035 446.638C710.154 439.345 686.753 432.486 663.865 427.236C617.553 416.615 573.363 412.598 523.347 424.987C473.34 437.374 417.553 466.149 348.019 521.032C278.589 575.832 220.567 592.17 168.723 587.177C116.853 582.183 71.08 555.831 26.1555 525.057C15.2963 517.618 4.48523 509.919 -6.34985 502.203L-6.35031 502.203L-6.35077 502.203L-6.35461 502.2C-40.309 478.021 -74.4989 453.673 -111.142 436.628C-159.516 414.125 -212.218 404.316 -274.431 424.311L-274.125 425.263C-212.204 405.362 -159.764 415.113 -111.564 437.535C-75.0121 454.538 -40.9285 478.809 -6.99146 502.975C3.85883 510.702 14.6942 518.417 25.5903 525.882C70.5331 556.669 116.486 583.152 168.627 588.173C220.793 593.196 279.064 576.731 348.638 521.817C418.107 466.985 473.766 438.299 523.587 425.958C573.399 413.62 617.42 417.61 663.642 428.211C686.458 433.444 709.814 440.29 734.666 447.575C810.503 469.805 900.264 496.117 1031.07 493.11C1074.49 492.112 1106.9 488.183 1130.85 481.924C1154.79 475.666 1170.31 467.069 1179.91 456.704C1199.13 435.942 1194.38 408.308 1186.55 379.054C1185.46 374.981 1184.31 370.876 1183.15 366.749L1183.15 366.726C1180.14 356 1177.09 345.134 1174.96 334.327C1172.01 319.365 1170.83 304.58 1173.93 290.557C1180.11 262.577 1203.42 237.401 1264.6 220.025C1460.48 164.387 1673.59 211.907 1755.64 242.62L1756 241.683Z" fill="url(#paint0_linear_8571_408794)"/>
<path opacity="0.2" fillRule="evenodd" clipRule="evenodd" d="M1616.96 459.26C1546.98 490.335 1365.29 538.411 1198.21 482.114C1172.08 473.31 1153.96 462.502 1141.7 450.288C1129.43 438.068 1123.05 424.462 1120.38 410.107C1117.71 395.762 1118.73 380.684 1121.26 365.512C1123.08 354.559 1125.68 343.529 1128.25 332.683L1128.25 332.678L1128.25 332.663C1129.23 328.5 1130.21 324.364 1131.14 320.27C1137.82 290.656 1141.7 263.258 1125.67 242.724C1117.66 232.456 1104.63 223.852 1084.35 217.563C1064.06 211.273 1036.55 207.309 999.626 206.302C888.42 203.27 812.193 229.777 747.64 252.224C726.449 259.593 706.517 266.525 687.017 271.83C647.569 282.563 609.914 286.625 567.294 274.101C524.689 261.581 477.176 232.502 417.968 177.061C358.854 121.709 309.482 105.233 265.395 110.27C221.271 115.31 182.318 141.908 144.062 172.998C134.817 180.511 125.612 188.288 116.386 196.082C87.4735 220.508 58.3528 245.11 27.1437 262.333C-14.0662 285.075 -58.984 294.997 -112.003 274.781L-111.646 273.847C-58.9686 293.933 -14.3609 284.096 26.6605 261.457C57.7746 244.287 86.7872 219.777 115.682 195.366C124.922 187.56 134.15 179.764 143.431 172.222C181.694 141.126 220.844 114.352 265.282 109.276C309.757 104.195 359.406 120.856 418.651 176.331C477.801 231.718 525.181 260.683 567.576 273.142C609.958 285.596 647.412 281.57 686.755 270.865C706.17 265.582 726.051 258.669 747.207 251.312C811.784 228.855 888.245 202.265 999.654 205.303C1036.63 206.311 1064.24 210.281 1084.65 216.608C1105.05 222.936 1118.28 231.631 1126.46 242.109C1142.81 263.065 1138.78 290.941 1132.11 320.491C1131.18 324.605 1130.2 328.752 1129.22 332.921L1129.21 332.939L1129.21 332.94C1126.65 343.776 1124.06 354.757 1122.24 365.676C1119.73 380.795 1118.72 395.743 1121.36 409.924C1124 424.094 1130.29 437.513 1142.41 449.58C1154.53 461.654 1172.5 472.395 1198.53 481.167C1365.28 537.354 1546.7 489.365 1616.55 458.346L1616.96 459.26ZM1220.23 446.291C1387.31 502.588 1569 454.512 1638.98 423.437L1638.57 422.523C1568.72 453.542 1387.3 501.531 1220.55 445.344C1194.52 436.572 1176.55 425.83 1164.43 413.757C1152.31 401.689 1146.02 388.271 1143.38 374.1C1140.74 359.919 1141.75 344.972 1144.26 329.853C1146.08 318.934 1148.67 307.954 1151.23 297.119L1151.23 297.117L1151.23 297.115L1151.24 297.097C1152.22 292.929 1153.2 288.781 1154.13 284.667C1160.8 255.118 1164.83 227.242 1148.48 206.285C1140.3 195.808 1127.07 187.113 1106.66 180.785C1086.26 174.458 1058.65 170.488 1021.67 169.479C910.265 166.442 833.803 193.032 769.227 215.488C748.071 222.846 728.19 229.759 708.774 235.042C669.431 245.747 631.977 249.773 589.596 237.319C547.2 224.86 499.821 195.895 440.671 140.508C381.426 85.0326 331.776 68.3719 287.301 73.4527C242.864 78.5292 203.714 105.303 165.451 136.399C156.17 143.941 146.942 151.737 137.702 159.543C108.807 183.953 79.7942 208.463 48.6801 225.634C7.65867 248.272 -36.949 258.109 -89.6268 238.024L-89.9831 238.958C-36.9644 259.174 7.95341 249.252 49.1633 226.51C80.3724 209.286 109.493 184.685 138.406 160.258L138.407 160.258C147.632 152.464 156.837 144.688 166.081 137.175C204.338 106.084 243.29 79.487 287.415 74.4463C331.502 69.4098 380.874 85.8856 439.987 141.238C499.195 196.679 546.709 225.758 589.314 238.278C631.934 250.802 669.589 246.74 709.037 236.007C728.536 230.701 748.469 223.77 769.659 216.401C834.213 193.954 910.439 167.447 1021.65 170.479C1058.57 171.486 1086.08 175.45 1106.37 181.74C1126.65 188.029 1139.68 196.633 1147.69 206.901C1163.72 227.435 1159.84 254.833 1153.15 284.447C1152.23 288.541 1151.25 292.677 1150.27 296.839L1150.27 296.855L1150.27 296.86C1147.7 307.706 1145.1 318.736 1143.28 329.689C1140.75 344.861 1139.73 359.939 1142.4 374.284C1145.07 388.639 1151.45 402.245 1163.72 414.465C1175.98 426.679 1194.1 437.487 1220.23 446.291ZM1661 387.614C1591.02 418.689 1409.33 466.765 1242.25 410.468C1216.12 401.664 1198 390.855 1185.74 378.642C1173.47 366.422 1167.09 352.816 1164.42 338.46C1161.75 324.116 1162.77 309.037 1165.3 293.866C1167.12 282.912 1169.72 271.883 1172.29 261.036L1172.29 261.032L1172.29 261.016C1173.27 256.853 1174.25 252.718 1175.17 248.624C1181.86 219.01 1185.74 191.612 1169.71 171.077C1161.7 160.81 1148.67 152.206 1128.39 145.917C1108.1 139.627 1080.59 135.663 1043.67 134.656C932.459 131.624 856.233 158.13 791.68 180.578C770.489 187.947 750.556 194.878 731.057 200.184C691.609 210.917 653.954 214.979 611.334 202.455C568.729 189.935 521.215 160.856 462.007 105.415C402.894 50.0623 353.522 33.5866 309.435 38.623C265.31 43.6638 226.358 70.2612 188.101 101.352C178.857 108.864 169.654 116.64 160.428 124.433L160.428 124.434L160.427 124.435L160.426 124.435C131.513 148.861 102.393 173.463 71.1834 190.686C29.9735 213.429 -14.9443 223.35 -67.963 203.135L-67.6067 202.201C-14.9289 222.286 29.6787 212.449 70.7002 189.811C101.814 172.64 130.827 148.13 159.722 123.72C168.962 115.914 178.19 108.118 187.471 100.576C225.734 69.4794 264.884 42.706 309.321 37.6295C353.796 32.5487 403.446 49.2094 462.691 104.685C521.841 160.071 569.22 189.037 611.616 201.495C653.997 213.949 691.452 209.923 730.794 199.219C750.21 193.936 770.091 187.022 791.247 179.665C855.823 157.208 932.285 130.619 1043.69 133.656C1080.67 134.664 1108.28 138.634 1128.68 144.962C1149.09 151.289 1162.32 159.984 1170.5 170.462C1186.85 191.418 1182.82 219.294 1176.15 248.844C1175.22 252.958 1174.24 257.105 1173.26 261.274L1173.25 261.292L1173.25 261.294L1173.25 261.295L1173.25 261.297C1170.69 272.132 1168.1 283.112 1166.28 294.03C1163.77 309.148 1162.76 324.096 1165.4 338.277C1168.04 352.448 1174.33 365.866 1186.45 377.933C1198.57 390.007 1216.54 400.749 1242.57 409.52C1409.32 465.708 1590.74 417.718 1660.59 386.7L1661 387.614ZM1683.02 351.791C1613.04 382.866 1431.35 430.942 1264.27 374.645C1238.14 365.841 1220.02 355.032 1207.76 342.819C1195.49 330.599 1189.11 316.992 1186.44 302.637C1183.77 288.293 1184.8 273.214 1187.32 258.042C1189.14 247.089 1191.74 236.06 1194.31 225.213L1194.31 225.208L1194.31 225.193C1195.29 221.03 1196.27 216.895 1197.2 212.801C1203.88 183.186 1207.76 155.788 1191.73 135.254C1183.72 124.987 1170.69 116.382 1150.41 110.093C1130.12 103.804 1102.62 99.8394 1065.69 98.8326C954.48 95.8005 878.254 122.307 813.7 144.755C792.51 152.123 772.577 159.055 753.077 164.36C713.629 175.094 675.974 179.156 633.355 166.632C590.749 154.112 543.236 125.033 484.028 69.5915C424.915 14.2391 375.543 -2.23666 331.455 2.79977C287.331 7.84055 248.378 34.4379 210.122 65.5284C200.877 73.0414 191.672 80.8178 182.447 88.612C153.534 113.038 124.413 137.64 93.2039 154.863C51.994 177.605 7.07626 187.527 -45.9425 167.312L-45.5862 166.377C7.0916 186.463 51.6993 176.626 92.7207 153.988C123.835 136.817 152.847 112.307 181.743 87.8963C190.982 80.0905 200.21 72.2947 209.491 64.7524C247.755 33.6562 286.905 6.88272 331.342 1.80624C375.817 -3.27454 425.467 13.3861 484.711 68.8615C543.861 124.248 591.241 153.214 633.637 165.672C676.018 178.126 713.472 174.1 752.815 163.395C772.228 158.113 792.106 151.201 813.259 143.845L813.261 143.844L813.267 143.842L813.267 143.842C877.844 121.385 954.305 94.7953 1065.71 97.8329C1102.69 98.8411 1130.3 102.811 1150.71 109.138C1171.11 115.466 1184.34 124.161 1192.52 134.639C1208.87 155.595 1204.84 183.471 1198.17 213.021C1197.24 217.135 1196.26 221.282 1195.28 225.451L1195.27 225.469L1195.27 225.47L1195.27 225.471L1195.27 225.473C1192.71 236.308 1190.12 247.288 1188.3 258.206C1185.79 273.325 1184.78 288.273 1187.42 302.454C1190.06 316.624 1196.35 330.043 1208.47 342.11C1220.59 354.184 1238.56 364.925 1264.59 373.697C1431.34 429.885 1612.76 381.895 1682.61 350.877L1683.02 351.791Z" fill="url(#paint1_linear_8571_408794)"/>
<defs>
<linearGradient id="paint0_linear_8571_408794" x1="-109.595" y1="461.604" x2="1737.96" y2="461.604" gradientUnits="userSpaceOnUse">
<stop offset="0.341667" stop-color="#4535AF" stop-opacity="0.7"/>
<stop offset="0.511553" stop-color="#F8EFF4" stop-opacity="0.1"/>
<stop offset="0.851637" stop-color="#4535AF" stop-opacity="0.8"/>
</linearGradient>
<linearGradient id="paint1_linear_8571_408794" x1="94.4223" y1="129.656" x2="1667.66" y2="129.656" gradientUnits="userSpaceOnUse">
<stop offset="0.310417" stop-color="#4535AF" stop-opacity="0.7"/>
<stop offset="0.461458" stop-color="#F8EFF4" stop-opacity="0.1"/>
<stop offset="0.851637" stop-color="#4535AF" stop-opacity="0.8"/>
</linearGradient>
</defs>
</svg>
